<?xml version="1.0" standalone="no"?>
<!DOCTYPE svg PUBLIC "-//W3C//DTD SVG 20010904//EN"
 "http://www.w3.org/TR/2001/REC-SVG-20010904/DTD/svg10.dtd">
<svg version="1.0" xmlns="http://www.w3.org/2000/svg"
 width="330.000000pt" height="330.000000pt" viewBox="0 0 330.000000 330.000000"
 preserveAspectRatio="xMidYMid meet">

<g transform="translate(0.000000,330.000000) scale(0.100000,-0.100000)"
fill="#000000" stroke="none">
<path d="M1727 2643 c15 -21 30 -40 33 -43 3 -3 18 -20 33 -38 15 -19 27 -30
27 -26 0 8 -109 144 -116 144 -3 0 8 -17 23 -37z"/>
<path d="M2390 2676 c0 -2 8 -10 18 -17 15 -13 16 -12 3 4 -13 16 -21 21 -21
13z"/>
<path d="M573 2573 c-43 -54 -80 -100 -83 -103 -3 -3 -18 -23 -35 -45 -16 -22
-39 -51 -51 -65 -82 -93 -104 -126 -98 -145 19 -62 71 -101 151 -111 l53 -6 0
-499 0 -499 25 -6 c38 -9 55 11 55 67 0 42 3 49 20 49 19 0 20 -7 20 -214 l0
-214 103 -6 c56 -3 196 -7 312 -9 267 -3 1556 12 1613 19 l42 5 0 210 0 209
-778 0 c-592 0 -781 3 -790 12 -7 7 -12 26 -12 43 0 19 -8 39 -20 50 -20 18
-29 62 -11 50 6 -3 15 4 21 15 61 115 50 374 -20 463 -21 27 -26 52 -11 61 23
15 80 -121 91 -219 11 -92 -1 -185 -34 -265 -23 -58 -24 -66 -10 -80 13 -13
112 -15 772 -18 416 -1 767 0 780 3 34 8 27 34 -32 107 -55 68 -66 73 -66 32
0 -29 -13 -37 -73 -44 -36 -5 -47 -3 -43 6 3 7 8 50 12 96 8 100 -7 205 -45
325 -25 77 -34 92 -71 121 -23 18 -35 32 -26 32 13 0 16 13 16 70 l0 70 -36
-15 c-20 -8 -38 -15 -40 -15 -2 0 -4 -25 -4 -55 l0 -54 -307 -3 c-170 -2 -440
-2 -600 0 l-293 2 0 60 0 60 33 -6 32 -5 -30 14 c-40 19 -63 46 -83 98 -20 51
-116 181 -183 248 -25 25 -63 68 -85 96 -21 27 -47 59 -56 69 -10 11 -18 23
-18 28 0 27 -38 -4 -107 -89z m95 -392 c17 -39 91 -75 152 -74 57 1 125 28
150 61 l20 25 0 -97 c0 -93 -1 -96 -22 -97 l-23 0 23 -11 c30 -15 31 -58 0
-58 -38 0 -105 -40 -131 -78 -34 -49 -67 -154 -67 -211 0 -43 -6 -54 -88 -156
l-87 -109 -3 379 -2 379 25 26 c14 14 25 31 25 38 0 22 15 12 28 -17z m1656
-227 c41 -39 83 -109 103 -173 13 -41 18 -90 18 -186 0 -158 -6 -172 -72 -177
l-48 -3 3 132 c4 138 -10 235 -47 318 -19 43 -18 65 5 65 17 0 18 22 2 38 -24
24 8 11 36 -14z m-64 -110 c28 -60 50 -171 50 -250 0 -62 -16 -152 -29 -165
-3 -4 -27 -9 -53 -12 l-47 -6 6 118 c7 130 -5 217 -43 318 -24 65 -21 73 27
73 20 0 24 9 12 26 -5 6 6 -5 24 -24 17 -18 41 -54 53 -78z m-153 14 c62 -128
78 -274 43 -399 -11 -38 -28 -49 -81 -49 l-27 0 1 148 c0 149 -11 220 -47 306
-9 21 -16 40 -16 42 0 7 86 8 96 2 6 -4 20 -27 31 -50z m-873 20 c34 -46 65
-145 72 -231 7 -76 -9 -202 -28 -224 -6 -7 -29 -13 -52 -13 l-41 0 4 132 c3
136 -7 209 -41 303 -10 27 -18 53 -18 57 0 5 18 8 39 8 33 0 44 -5 65 -32z
m298 -15 c41 -77 58 -152 58 -260 0 -100 -13 -172 -34 -185 -6 -4 -31 -8 -55
-8 -36 0 -42 3 -37 16 4 9 9 56 13 104 6 91 -15 241 -43 309 -25 59 -20 71 29
71 42 0 45 -2 69 -47z m124 30 c19 -19 39 -64 62 -138 21 -70 21 -257 -1 -307
-15 -36 -19 -38 -61 -38 l-45 0 6 108 c6 121 -6 219 -41 322 l-23 70 43 0 c27
0 49 -6 60 -17z m157 -20 c25 -42 39 -81 57 -162 15 -66 9 -225 -11 -267 -12
-25 -21 -29 -59 -32 l-45 -3 -1 168 c-1 155 -3 174 -27 243 -15 41 -27 78 -27
83 0 4 20 7 45 7 41 0 47 -3 68 -37z m150 -10 c14 -27 32 -76 41 -109 28 -108
17 -312 -19 -336 -5 -4 -29 -8 -53 -8 l-43 0 8 38 c4 20 7 87 6 147 -1 106 -9
144 -60 298 -5 15 2 17 44 17 49 0 50 -1 76 -47z m-973 27 c0 -5 -5 -10 -11
-10 -5 0 -7 5 -4 10 3 6 8 10 11 10 2 0 4 -4 4 -10z m392 -12 c8 -13 26 -52
39 -88 20 -55 24 -84 24 -190 0 -84 -5 -136 -14 -157 -12 -31 -17 -33 -60 -33
l-46 0 3 139 c3 119 1 152 -18 223 -37 141 -39 128 13 128 35 0 48 -5 59 -22z
m-392 -28 c0 -5 -15 -10 -33 -10 -45 0 -89 -48 -117 -125 -17 -48 -20 -53 -16
-23 11 88 74 168 132 168 19 0 34 -4 34 -10z m0 -185 c0 -91 -2 -165 -4 -165
-2 0 -28 30 -58 68 -29 37 -55 68 -58 70 -33 17 -34 20 -20 64 24 77 71 125
123 127 15 1 17 -13 17 -164z m109 45 c0 -8 -6 0 -14 19 -8 18 -15 36 -15 40
1 13 29 -45 29 -59z m14 -47 c-3 -24 -2 -25 6 -8 8 16 10 10 10 -27 1 -26 -3
-50 -9 -53 -6 -3 -10 4 -10 17 0 13 -3 40 -6 61 -4 22 -3 37 3 37 6 0 9 -12 6
-27z m-6 -145 c-3 -7 -5 -2 -5 12 0 14 2 19 5 13 2 -7 2 -19 0 -25z"/>
<path d="M1380 2645 c24 -32 40 -47 40 -37 0 4 -12 19 -27 33 -20 18 -23 19
-13 4z"/>
<path d="M2130 2570 c39 -49 76 -92 81 -96 6 -3 -22 37 -63 89 -40 53 -76 96
-81 96 -4 1 24 -39 63 -89z"/>
<path d="M2435 2620 c10 -11 20 -20 22 -20 2 0 -2 9 -9 20 -7 11 -17 20 -22
20 -5 0 -1 -9 9 -20z"/>
<path d="M1060 2611 c0 -5 4 -11 8 -13 4 -1 28 -29 52 -60 24 -32 46 -55 48
-53 6 6 -90 134 -100 135 -5 0 -8 -4 -8 -9z"/>
<path d="M2232 2440 c7 -11 16 -20 20 -20 5 0 3 9 -4 20 -7 11 -16 20 -20 20
-5 0 -3 -9 4 -20z"/>
<path d="M2590 2426 c0 -2 8 -10 18 -17 15 -13 16 -12 3 4 -13 16 -21 21 -21
13z"/>
<path d="M1607 2361 c21 -28 42 -50 46 -50 5 -1 -10 22 -33 49 -54 64 -61 65
-13 1z"/>
<path d="M1961 2353 c7 -12 15 -20 18 -17 3 2 -3 12 -13 22 -17 16 -18 16 -5
-5z"/>
<path d="M1279 2345 c6 -11 25 -36 42 -55 26 -30 28 -30 10 -5 -31 46 -64 84
-52 60z"/>
<path d="M1671 2283 c7 -12 15 -20 18 -17 3 2 -3 12 -13 22 -17 16 -18 16 -5
-5z"/>
<path d="M1700 2222 c0 -55 54 -113 107 -112 12 1 7 5 -12 14 -39 17 -64 46
-81 93 l-13 38 -1 -33z"/>
<path d="M2741 2214 c0 -11 3 -14 6 -6 3 7 2 16 -1 19 -3 4 -6 -2 -5 -13z"/>
<path d="M1350 2204 c0 -29 79 -95 112 -94 7 1 -6 10 -29 21 -26 13 -47 32
-55 50 -11 26 -28 39 -28 23z"/>
<path d="M2040 2207 c-1 -31 77 -98 112 -97 7 1 -6 10 -29 22 -24 11 -43 23
-43 27 -1 10 -40 57 -40 48z"/>
<path d="M2754 1765 c2 -236 7 -452 11 -479 5 -31 3 -56 -5 -70 -16 -32 -9
-106 13 -120 12 -8 22 -8 35 0 16 10 17 49 22 519 4 445 3 508 -10 513 -8 3
-27 20 -42 36 l-28 31 4 -430z"/>
<path d="M1158 2103 c12 -2 30 -2 40 0 9 3 -1 5 -23 4 -22 0 -30 -2 -17 -4z"/>
<path d="M1488 2103 c6 -2 18 -2 25 0 6 3 1 5 -13 5 -14 0 -19 -2 -12 -5z"/>
<path d="M1848 2103 c12 -2 30 -2 40 0 9 3 -1 5 -23 4 -22 0 -30 -2 -17 -4z"/>
<path d="M2178 2103 c7 -3 16 -2 19 1 4 3 -2 6 -13 5 -11 0 -14 -3 -6 -6z"/>
<path d="M2888 2103 c7 -3 16 -2 19 1 4 3 -2 6 -13 5 -11 0 -14 -3 -6 -6z"/>
<path d="M645 725 c-115 -18 -155 -28 -202 -52 -65 -34 -54 -43 54 -44 54 -1
217 -5 363 -8 l265 -7 -190 -2 c-104 -1 -196 -6 -204 -11 -11 -7 5 -22 65 -61
175 -114 360 -173 644 -205 235 -27 495 -10 730 47 75 18 222 69 275 96 54 27
187 110 195 122 3 4 86 10 186 12 100 3 188 9 197 14 9 5 -265 10 -661 11
-831 1 -1061 16 -1277 80 -70 21 -325 26 -440 8z"/>
</g>
</svg>
